<svg xmlns="http://www.w3.org/2000/svg" xmlns:xlink="http://www.w3.org/1999/xlink" width="274.507" height="112.199" viewBox="0 0 274.507 112.199">
  <defs>
    <clipPath id="clip-path">
      <path id="Clip_6" data-name="Clip 6" d="M0,0H82.877V97.762H0Z" fill="none"/>
    </clipPath>
  </defs>
  <g id="OnxRestaurant_Logo" transform="translate(0 0)">
    <g id="OnxLogo" transform="translate(0)">
      <path id="Fill_1" data-name="Fill 1" d="M29.61,43.824,0,103.046,40.271,42.64,3.553,0Z" transform="translate(107.094 4.634)" fill="#004f62"/>
      <path id="Fill_2" data-name="Fill 2" d="M0,9.475,7.107,0,36.718,33.164H15.4Z" transform="translate(142.626 48.458)" fill="#eb1d25"/>
      <path id="Fill_3" data-name="Fill 3" d="M0,37.9,20.135,0H36.718L7.107,43.824Z" transform="translate(142.626 1.08)" fill="#969896"/>
      <path id="Fill_4" data-name="Fill 4" d="M0,26.057,11.844,0H22.5l4.738,11.844L33.164,0H42.64L30.795,26.057H21.32l3.553-7.107L18.951,7.107,10.659,26.057Z" transform="translate(81.036 55.564)" fill="#969896"/>
      <g id="Group_7" data-name="Group 7" transform="translate(0 0)">
        <path id="Clip_6-2" data-name="Clip 6" d="M0,0H82.877V97.762H0Z" fill="none"/>
        <g id="Group_7-2" data-name="Group 7" clip-path="url(#clip-path)">
          <path id="Fill_5" data-name="Fill 5" d="M72.745,27.138C78.667,16.479,68.978,5.661,61.81,2.647,41.028-6.094,15.475,7.521,4.736,33.056s-2.6,53.318,18.182,62.06,46.334-4.875,57.073-30.409a61.627,61.627,0,0,0,2.885-8.549H70.117q-.271.694-.563,1.387C60.531,79,40.752,91.146,25.376,84.68s-20.526-29.1-11.5-50.555S42.676.521,58.052,6.988c7.728,3.251,12.873,10.585,14.933,19.8Z" transform="translate(0 0)" fill="#969896"/>
        </g>
        <path id="Fill_8" data-name="Fill 8" d="M21.32,10.659A10.66,10.66,0,1,1,10.66,0,10.66,10.66,0,0,1,21.32,10.659" transform="translate(62.677 30.692)" fill="#eb1d25"/>
      </g>
    </g>
    <text id="Orders_Delivery" data-name="Orders Delivery" transform="translate(202.507 107.199)" fill="#969896" font-size="21" font-family="MyriadPro-Regular, Myriad Pro" letter-spacing="0.025em"><tspan x="-71" y="0">Orders Delivery</tspan></text>
  </g>
</svg>
